<svg id="svg2" xmlns="http://www.w3.org/2000/svg" xmlns:xlink="http://www.w3.org/1999/xlink" viewBox="0 0 831.3 693.49"><defs><style>.cls-1,.cls-13,.cls-2,.cls-6{fill:none;}.cls-13,.cls-2,.cls-3,.cls-6{stroke:#000;}.cls-2,.cls-3,.cls-6{stroke-linecap:round;stroke-linejoin:round;}.cls-13,.cls-2{stroke-width:2.5px;}.cls-3{stroke-width:0.17px;fill:url(#linear-gradient);}.cls-4{clip-path:url(#clip-path);}.cls-5{clip-path:url(#clip-path-2);}.cls-6{stroke-width:1.94px;}.cls-7{clip-path:url(#clip-path-3);}.cls-8{clip-path:url(#clip-path-4);}.cls-9{clip-path:url(#clip-path-5);}.cls-10{fill:#fff;}.cls-11{clip-path:url(#clip-path-7);}.cls-12{clip-path:url(#clip-path-8);}.cls-13{stroke-miterlimit:12.5;}.cls-14{clip-path:url(#clip-path-9);}.cls-15{clip-path:url(#clip-path-10);}.cls-16{clip-path:url(#clip-path-12);}.cls-17{clip-path:url(#clip-path-13);}.cls-18{clip-path:url(#clip-path-14);}.cls-19,.cls-20,.cls-21,.cls-22,.cls-25{isolation:isolate;}.cls-20{font-size:22.5px;}.cls-20,.cls-21,.cls-22,.cls-25{font-family:Helvetica;}.cls-21{font-size:12.5px;}.cls-22{font-size:24px;}.cls-23{letter-spacing:-0.02em;}.cls-24{letter-spacing:-0.04em;}.cls-25{font-size:18px;}</style><linearGradient id="linear-gradient" x1="77.03" y1="385.81" x2="118.81" y2="385.81" gradientTransform="translate(97 -143.36) scale(1.25)" gradientUnits="userSpaceOnUse"><stop offset="0" stop-color="blue"/><stop offset="0.52" stop-color="lime"/><stop offset="1" stop-color="red"/></linearGradient><clipPath id="clip-path"><rect class="cls-1" x="192.62" y="49.19" width="53.61" height="7.88"/></clipPath><clipPath id="clip-path-2"><rect class="cls-1" x="198.49" y="52.17" width="41.86" height="1.94"/></clipPath><clipPath id="clip-path-3"><rect class="cls-1" x="236.59" y="49.2" width="9.64" height="7.88"/></clipPath><clipPath id="clip-path-4"><rect class="cls-1" x="192.62" y="49.19" width="9.64" height="7.88"/></clipPath><clipPath id="clip-path-5"><rect class="cls-1" x="362.01" y="193.29" width="12.76" height="11.94"/></clipPath><clipPath id="clip-path-7"><rect class="cls-1" x="355.3" y="148.25" width="186.71" height="62.71"/></clipPath><clipPath id="clip-path-8"><rect class="cls-1" x="367.92" y="148.25" width="174.09" height="52.2"/></clipPath><clipPath id="clip-path-9"><rect class="cls-1" x="355.3" y="187.08" width="25.52" height="23.87"/></clipPath><clipPath id="clip-path-10"><rect class="cls-1" x="484.86" y="514.41" width="12.76" height="11.94"/></clipPath><clipPath id="clip-path-12"><rect class="cls-1" x="478.14" y="469.37" width="186.71" height="62.71"/></clipPath><clipPath id="clip-path-13"><rect class="cls-1" x="490.76" y="469.37" width="174.09" height="52.2"/></clipPath><clipPath id="clip-path-14"><rect class="cls-1" x="478.14" y="508.2" width="25.52" height="23.87"/></clipPath></defs><g id="g10"><path id="path12" class="cls-2" d="M99.72,613.77V628.6"/><path id="path14" class="cls-2" d="M84.69,613.77h15"/><path id="path16" class="cls-2" d="M605,613.77H99.72"/><path id="path18" class="cls-2" d="M99.72,613.77V15.5"/><path id="path20" class="cls-2" d="M69.65,613.77h15"/><path id="path22" class="cls-2" d="M84.69,544.68h15"/><path id="path24" class="cls-2" d="M84.69,481.93h15"/><path id="path26" class="cls-2" d="M84.69,415.54h15"/><path id="path28" class="cls-2" d="M84.69,355.53h15"/><path id="path30" class="cls-2" d="M84.69,286.72h15"/><path id="path32" class="cls-2" d="M84.69,220.66h15"/><path id="path34" class="cls-2" d="M84.69,158.25h15"/><path id="path36" class="cls-2" d="M84.69,89.43h15"/><path id="path38" class="cls-2" d="M84.69,15.5h15"/><path id="path40" class="cls-2" d="M99.72,628.6v14.84"/><path id="path42" class="cls-2" d="M151.35,613.77V628.6"/><path id="path44" class="cls-2" d="M210.42,613.77V628.6"/><path id="path46" class="cls-2" d="M266.15,613.77V628.6"/><path id="path48" class="cls-2" d="M325.23,613.77V628.6"/><path id="path50" class="cls-2" d="M387.12,613.77V628.6"/><path id="path52" class="cls-2" d="M443.38,613.77V628.6"/><path id="path54" class="cls-2" d="M495.27,613.77V628.6"/><path id="path56" class="cls-2" d="M551.12,613.77V628.6"/><path id="path58" class="cls-2" d="M605,613.77V628.6"/><path id="path70" class="cls-3" d="M245.52,64H193.29V613.77h52.23V64"/><g id="g112"><g id="g132"><g class="cls-4"><g id="g134"><g id="g136"><g id="g140"><g class="cls-5"><g id="g142"><path id="path144" class="cls-6" d="M199.46,53.13h39.93"/></g></g></g></g><g id="g146"><g id="g150"><g class="cls-7"><g id="g152"><path id="path154" d="M246.23,53.13l-9.64,3.94,2.29-3.94-2.29-3.93Z"/></g></g></g></g><g id="g156"><g id="g160"><g class="cls-8"><g id="g162"><path id="path164" d="M192.62,53.13l9.64-3.94L200,53.13l2.28,3.94Z"/></g></g></g></g></g></g></g></g><g id="g170"><g id="g182"><g class="cls-9"><g id="g184"><g id="g186"><g id="g190"><g class="cls-9"><g id="g192"><path id="path194" class="cls-10" d="M362,205.23l6.17-11.94,1.05,5.78,5.55,2L362,205.23Z"/></g></g></g></g></g></g></g></g><g id="g196"><g id="g212"><g class="cls-11"><g id="g214"><g id="g216"><g id="g220"><g class="cls-12"><g id="g222"><path id="path224" class="cls-13" d="M368.73,199.5l58.62-50H542"/></g></g></g></g><g id="g226"><g id="g230"><g class="cls-14"><g id="g232"><path id="path234" d="M355.3,211l12.33-23.87,2.1,11.56,11.09,3.9Z"/></g></g></g></g></g></g></g></g><g id="g236"><g id="g248"><g class="cls-15"><g id="g250"><g id="g252"><g id="g256"><g class="cls-15"><g id="g258"><path id="path260" class="cls-10" d="M484.86,526.35,491,514.41l1.06,5.78,5.54,1.95Z"/></g></g></g></g></g></g></g></g><g id="g262"><g id="g278"><g class="cls-16"><g id="g280"><g id="g282"><g id="g286"><g class="cls-17"><g id="g288"><path id="path290" class="cls-13" d="M491.57,520.62l58.62-50H664.85"/></g></g></g></g><g id="g292"><g id="g296"><g class="cls-18"><g id="g298"><path id="path300" d="M478.14,532.08l12.33-23.88,2.11,11.57,11.08,3.89-25.52,8.42Z"/></g></g></g></g></g></g></g></g><g id="text350" class="cls-19"><text class="cls-20" transform="translate(138.31 652.26)">0</text><text class="cls-20" transform="translate(149.86 652.26)">.</text><text class="cls-20" transform="translate(154.51 652.26)">2</text></g><g id="text354" class="cls-19"><text class="cls-20" transform="translate(197.49 652.26)">0</text><text class="cls-20" transform="translate(209.03 652.26)">.</text><text class="cls-20" transform="translate(213.69 652.26)">5</text></g><g id="text358" class="cls-19"><text class="cls-20" transform="translate(260.91 652.26)">1</text></g><g id="text362" class="cls-19"><text class="cls-20" transform="translate(320.54 652.26)">2</text></g><g id="text366" class="cls-19"><text class="cls-20" transform="translate(381.13 652.26)">5</text></g><g id="text370" class="cls-19"><text class="cls-20" transform="translate(433.79 652.26)">1</text><text class="cls-20" transform="translate(445.33 652.26)">0</text></g><g id="text374" class="cls-19"><text class="cls-20" transform="translate(484.08 652.26)">2</text><text class="cls-20" transform="translate(495.62 652.26)">0</text></g><g id="text378" class="cls-19"><text class="cls-20" transform="translate(539 652.26)">5</text><text class="cls-20" transform="translate(550.54 652.26)">0</text></g><g id="text382" class="cls-19"><text class="cls-20" transform="translate(588.83 652.26)">1</text><text class="cls-20" transform="translate(600.37 652.26)">0</text><text class="cls-20" transform="translate(611.92 652.26)">0</text></g><g id="text386" class="cls-19"><text class="cls-20" transform="translate(44.25 555.87)">1</text><text class="cls-20" transform="translate(55.79 555.87)">0</text></g><g id="text390" class="cls-19"><text class="cls-21" transform="translate(70.79 544.99)">1</text></g><g id="text394" class="cls-19"><text class="cls-20" transform="translate(44.25 491.95)">1</text><text class="cls-20" transform="translate(55.79 491.95)">0</text></g><g id="text398" class="cls-19"><text class="cls-21" transform="translate(70 481.08)">2</text></g><g id="text402" class="cls-19"><text class="cls-20" transform="translate(44.25 424.88)">1</text><text class="cls-20" transform="translate(55.79 424.88)">0</text></g><g id="text406" class="cls-19"><text class="cls-21" transform="translate(70.79 414)">3</text></g><g id="text410" class="cls-19"><text class="cls-20" transform="translate(44.25 364.91)">1</text><text class="cls-20" transform="translate(55.79 364.91)">0</text></g><g id="text414" class="cls-19"><text class="cls-21" transform="translate(70.79 354.03)">4</text></g><g id="text418" class="cls-19"><text class="cls-20" transform="translate(44.25 295.47)">1</text><text class="cls-20" transform="translate(55.79 295.47)">0</text></g><g id="text422" class="cls-19"><text class="cls-21" transform="translate(70.79 284.59)">5</text></g><g id="text426" class="cls-19"><text class="cls-20" transform="translate(44.25 229.19)">1</text><text class="cls-20" transform="translate(55.79 229.19)">0</text></g><g id="text430" class="cls-19"><text class="cls-21" transform="translate(70.79 218.31)">6</text></g><g id="text434" class="cls-19"><text class="cls-20" transform="translate(44.25 166.85)">1</text><text class="cls-20" transform="translate(55.79 166.85)">0</text></g><g id="text438" class="cls-19"><text class="cls-21" transform="translate(71.58 155.97)">7</text></g><g id="text442" class="cls-19"><text class="cls-20" transform="translate(44.25 98.2)">1</text><text class="cls-20" transform="translate(55.79 98.2)">0</text></g><g id="text446" class="cls-19"><text class="cls-21" transform="translate(70.79 87.32)">8</text></g><g id="text450" class="cls-19"><text class="cls-20" transform="translate(44.25 24.02)">1</text><text class="cls-20" transform="translate(55.79 24.02)">0</text></g><g id="text454" class="cls-19"><text class="cls-21" transform="translate(70.79 13.14)">9</text></g><path id="path466" class="cls-2" d="M246.49,612.83c16.07-81,20.64-101.12,24.71-117.86s7.63-30.09,10.52-40,5.1-16.43,7.46-22.94,4.88-13,7.61-19.43,5.67-12.7,8.09-17.32a94.58,94.58,0,0,1,6.24-10.4c1.95-2.83,3.94-5.56,6.09-8.19s4.47-5.14,6.88-7.61a79.78,79.78,0,0,1,7.66-7,64.56,64.56,0,0,1,8.72-5.73,54,54,0,0,1,9.45-4.19,34.24,34.24,0,0,1,10-1.74,39.56,39.56,0,0,1,10.23,1.32,53.3,53.3,0,0,1,9.77,3.46,67.43,67.43,0,0,1,9.08,5.2,85.83,85.83,0,0,1,8.24,6.3,116.87,116.87,0,0,1,8.72,8.4c3.57,3.73,8.19,8.76,14.8,16.75S436,410.7,440.33,416.16l4.3,5.46h0L565,612.83"/><path id="path468" class="cls-2" d="M113,612.83l9.6-77.63,9.16-72.43,7.09-54.16,5.35-38.87,3.94-26.57,2.88-17.24L153.19,315l1.77-7.58,1.65-6.73,1.6-6.38,1.54-6,1.48-5.68,1.42-5.32,1.36-5,1.3-4.62,1.22-4.27,1.16-3.93,1.1-3.62,1.05-3.35,1-3.13,1-3,1-2.82,1-2.74,1-2.69,1-2.69,1-2.68,1-2.68,1-2.68,1-2.67,1.08-2.67,1.09-2.65,1.12-2.65,1.13-2.63,1.15-2.6,1.15-2.55,1.14-2.48,1.13-2.39,1.1-2.27,1.07-2.15,1-2,1-1.82.93-1.67.88-1.54.85-1.42.83-1.33.81-1.26.8-1.21.8-1.18.81-1.16.81-1.16.82-1.14.83-1.13.84-1.12.85-1.11.86-1.1.88-1.09.9-1.08.91-1.06.93-1.06.94-1.05.95-1,1-1,1-1,1-1,1-1,1-1,1-1,1-1,1.06-1,1.08-.95,1.09-.92,1.12-.9,1.14-.88,1.15-.84,1.18-.83,1.19-.79,1.21-.78,1.23-.75,1.24-.72,1.25-.71,1.26-.68,1.27-.66,1.28-.63,1.3-.6,1.3-.56,1.32-.54,1.32-.49,1.34-.46,1.35-.41,1.36-.36,1.36-.32,1.38-.27,1.39-.22,1.39-.16,1.4-.11,1.4-.05H254l1.41.06,1.42.12,1.41.16,1.41.21,1.41.26,1.4.29,1.39.33,1.38.36,1.37.4L268,151l1.35.46,1.34.49,1.32.53,1.32.55,1.3.59,1.3.63,1.28.65,1.27.68,1.26.71,1.24.73,1.23.75,1.22.78,1.19.79,1.19.81,1.17.82,1.15.85,1.14.86,1.12.87,1.11.89,1.1.91,1.09.92,1.08.94,1.09,1,1.1,1,1.14,1.08,1.18,1.16,1.25,1.25,1.33,1.35,1.42,1.47,1.53,1.61,1.65,1.76,1.78,2,1.92,2.14,2.09,2.36,2.25,2.6,2.44,2.86,2.62,3.14,2.83,3.44,3,3.7,3.15,3.94,3.27,4.12,3.35,4.29,3.41,4.4,3.43,4.49,3.43,4.54,3.41,4.55,3.38,4.57,3.35,4.58,3.32,4.59,3.3,4.6,3.29,4.62L368.7,259l3.25,4.65,3.24,4.66,3.23,4.68,3.22,4.69,3.2,4.71,3.17,4.73,3.16,4.73,3.14,4.75,3.11,4.76,3.1,4.8,3.22,5,3.48,5.46,3.86,6.11,4.4,7,5.08,8,5.89,9.32,6.84,10.8,8,12.72,10,15.92,12.78,20.61,16.4,26.79,20.88,34.47L527.57,512l32.35,54.3,27.53,46.5"/><path id="path470" class="cls-2" d="M99.72,368.54l5.39-21,4.56-17.52,3.84-14.57,3.23-12.08,2.73-10.06,2.35-8.51,2.07-7.42,1.9-6.81,1.82-6.57,1.76-6.39,1.7-6.18,1.64-5.95,1.56-5.67,1.5-5.38,1.42-5,1.35-4.69,1.28-4.31,1.2-4,1.16-3.69,1.11-3.44,1.08-3.26,1.07-3.1,1.06-3,1.06-3,1.08-2.95,1.1-2.95,1.12-3,1.14-2.95,1.16-2.93,1.18-2.94,1.21-2.92,1.22-2.91,1.25-2.9,1.26-2.86,1.27-2.8,1.26-2.73,1.24-2.63,1.21-2.5,1.17-2.36,1.13-2.18,1.06-2,1-1.83,1-1.7.94-1.56.91-1.47.89-1.38.89-1.34.88-1.29.88-1.28.89-1.27.9-1.26.92-1.24.92-1.23.94-1.23,1-1.2,1-1.2,1-1.19,1-1.17,1-1.16,1-1.16,1.05-1.14,1.06-1.14,1.08-1.13,1.09-1.12,1.1-1.12,1.11-1.11,1.14-1.09,1.14-1.08,1.17-1.06,1.18-1,1.2-1,1.23-1,1.25-1,1.27-.93,1.3-.9,1.31-.88,1.33-.85,1.35-.82,1.36-.8,1.38-.78,1.38-.75,1.4-.72,1.41-.7,1.43-.66,1.43-.62,1.45-.59,1.46-.54,1.47-.5,1.48-.45,1.5-.41,1.5-.35,1.52-.29,1.52-.24,1.53-.18,1.54-.12,1.54-.06h1.56l1.55.07,1.56.13,1.55.18,1.55.23,1.55.29,1.54.32,1.53.36,1.52.4,1.51.43,1.49.47,1.49.51,1.47.54,1.46.58,1.44.61,1.44.65,1.42.69,1.41.72,1.4.75,1.38.77,1.37.81,1.35.83,1.34.85,1.32.87,1.3.89,1.28.91,1.27.93,1.25.94,1.24,1,1.22,1,1.21,1,1.2,1,1.19,1,1.19,1.07,1.21,1.12,1.25,1.19,1.31,1.27,1.37,1.37,1.46,1.49,1.57,1.62,1.68,1.77,1.81,1.94,2,2.14,2.12,2.35,2.29,2.6,2.48,2.86,2.68,3.15,2.89,3.45,3.11,3.79,3.3,4.07,3.47,4.33,3.59,4.54,3.68,4.71,3.75,4.85,3.78,4.93,3.78,5,3.75,5,3.71,5,3.68,5,3.66,5.05,3.63,5.06,3.62,5.08,3.59,5.1L364.5,225l3.57,5.13,3.55,5.15,3.54,5.16,3.51,5.18,3.5,5.2,3.48,5.2,3.44,5.23,3.42,5.23,3.44,5.31,3.64,5.72,4.09,6.52,4.78,7.71,5.71,9.3,6.88,11.28L429.33,326l9.94,16.42L451.09,362,465,385.25l16.25,27.34,18.79,31.93,21.54,37L546.11,524l27.72,48.5,22.82,40.32"/><path id="path474" class="cls-2" d="M178.69,612.83l6.63-43.41,8.37-54,6.47-40.73L205,445.06l3.6-20.69,2.62-13.9,2-9.28,1.6-6.8,1.5-6.12,1.45-5.8,1.41-5.48,1.34-5.16,1.3-4.84,1.23-4.53,1.18-4.19,1.11-3.88,1.06-3.57,1-3.29.95-3,.92-2.85.89-2.68.88-2.57.88-2.49.88-2.45.89-2.44.91-2.44.93-2.44.94-2.43,1-2.43,1-2.42,1-2.42,1-2.4,1-2.4,1.05-2.36,1-2.32,1-2.25,1-2.17,1-2.07,1-1.95.93-1.81.88-1.65.84-1.52.8-1.4.78-1.29.75-1.22.74-1.14.73-1.1.72-1.07.74-1.06.73-1.05.75-1,.75-1,.76-1,.78-1,.78-1,.8-1,.82-1,.83-1,.84-1,.86-1,.86-.94.88-.94.89-.94.9-.92.91-.93.92-.91.94-.91.95-.89,1-.88,1-.86,1-.84,1-.82,1-.79,1-.78,1.07-.74,1.09-.73,1.1-.7,1.11-.68,1.13-.66,1.13-.64,1.15-.62,1.15-.6,1.17-.57,1.18-.55,1.18-.51,1.2-.49,1.21-.45,1.21-.41,1.23-.38,1.23-.33,1.25-.29,1.25-.24,1.26-.2L301,250l1.27-.1,1.28,0h1.28l1.29.06,1.28.11,1.29.15,1.28.19,1.28.23,1.27.27,1.27.3,1.25.33,1.25.36,1.23.38,1.23.42,1.21.45,1.21.48,1.2.51,1.18.53,1.18.57,1.16.59,1.16.62,1.14.64,1.13.67,1.12.68,1.1.71,1.09.72,1.08.74,1.06.75,1,.76,1,.78,1,.8,1,.81,1,.82,1,.84,1,.86,1,.88,1,.93,1,1,1.08,1,1.13,1.13,1.21,1.23,1.29,1.34,1.39,1.46,1.5,1.61,1.62,1.76,1.75,1.95,1.9,2.14,2.05,2.37,2.21,2.6,2.39,2.86,2.57,3.12,2.73,3.37,2.86,3.58,3,3.75,3.05,3.89,3.09,4,3.13,4.08,3.12,4.12,3.09,4.14,3.07,4.15,3,4.16,3,4.18,3,4.18,3,4.2,3,4.21,3,4.23,2.94,4.24,2.94,4.25,2.92,4.27,2.91,4.28,2.89,4.29,2.87,4.31,2.85,4.31,2.83,4.33,2.81,4.34,2.8,4.38,2.83,4.47,2.86,4.57,2.94,4.72,3,4.9,3.13,5.11,3.26,5.36,3.59,5.93,4.83,8,7.14,11.88L485,470.1l15,25,20.54,34.27,27.16,45.32,22.85,38.13"/><path id="path476" class="cls-2" d="M419.7,612.83l.58-.91.73-1.1.73-1.07.73-1.06.74-1.05.74-1,.76-1,.76-1,.77-1,.79-1,.8-1,.81-1,.83-1,.84-1,.86-1,.87-.94.88-.94.89-.94.9-.93.91-.92.92-.91.93-.91.95-.89,1-.88,1-.86,1-.84,1-.82,1-.79,1-.77,1.07-.75,1.08-.73,1.1-.7,1.11-.68,1.13-.66,1.14-.64,1.15-.62,1.15-.6,1.17-.57,1.17-.55,1.19-.51,1.2-.49,1.2-.45,1.22-.41,1.22-.38,1.24-.33,1.24-.29,1.25-.24,1.26-.2,1.27-.15,1.27-.1,1.27,0h1.29l1.28.06,1.29.11,1.28.15,1.29.19,1.28.23,1.27.27,1.26.3,1.26.33,1.24.36,1.24.39,1.23.42,1.21.44,1.2.48,1.2.51,1.19.53,1.17.57,1.17.6,1.15.61,1.15.65,1.13.66,1.11.69,1.11.7,1.09.72,1.08.74,1.06.75,1,.76,1,.78,1,.8,1,.81,1,.82,1,.84,1,.86,1,.88,1,.93,1,1,1.07,1.05,1.14,1.13,1.2,1.23,1.3,1.34,1.39,1.46,1.5,1.61,1.61,1.76,1.76,2,1.89,2.15,2,2.36,1.37,1.61"/><path id="path478" class="cls-2" d="M370.45,612.83l.17-.52.89-2.68.88-2.57.88-2.49.88-2.45.89-2.44.91-2.44.92-2.44.95-2.43,1-2.43,1-2.42,1-2.42,1-2.4,1-2.4,1-2.36,1-2.32,1-2.26,1-2.16,1-2.08,1-1.94.94-1.81.88-1.66.84-1.51.8-1.4.78-1.29.75-1.22.74-1.14.73-1.1.72-1.08.74-1.05.73-1,.74-1,.76-1,.76-1,.78-1,.78-1,.8-1,.82-1,.83-1,.84-1,.85-1,.87-.95.88-.94.89-.93.9-.93.91-.92.92-.91.94-.91.94-.89,1-.88,1-.86,1-.84,1-.82,1-.8,1.05-.77,1.07-.74,1.09-.73,1.1-.7,1.11-.69,1.12-.65,1.14-.65,1.15-.61,1.15-.6,1.17-.57,1.18-.55,1.18-.52,1.2-.48,1.2-.45,1.22-.41,1.23-.38,1.23-.33,1.25-.29,1.25-.24,1.25-.2,1.27-.15,1.27-.1,1.28,0h1.28l1.28.06,1.29.11,1.29.14,1.28.2,1.28.23,1.27.27,1.27.3,1.25.33,1.25.35,1.23.39,1.23.42,1.21.45,1.21.48,1.19.5,1.19.54,1.18.57,1.16.59,1.16.62,1.14.64,1.13.67,1.12.68,1.1.71,1.09.72,1.08.73,1.06.75,1.05.77,1,.78,1,.8,1,.8,1,.83,1,.84,1,.86,1,.88,1,.93,1,1,1.08,1.05,1.13,1.13,1.21,1.23,1.29,1.34,1.39,1.46,1.5,1.61,1.62,1.76,1.75,2,1.9,2.14,2,2.37,2.22,2.6,2.39,2.86,2.56,3.12,2.73,3.37,2.87,3.57,3,3.76,3,3.89,3.1,4,3.13,4.08,3.12,4.12,3.09,4.14,3.07,4.15,3,4.16,3,4.17,3,4.19.14.19"/><path id="path480" class="cls-2" d="M316.15,612.83l1.08-4.88L319,600.4l1.57-6.55,1.5-6.12,1.46-5.8,1.4-5.48,1.35-5.16,1.29-4.84,1.24-4.52,1.17-4.2,1.12-3.89,1.05-3.56,1-3.29.95-3,.92-2.85.9-2.68.88-2.57.87-2.49.88-2.45.9-2.44.91-2.44.92-2.43.94-2.44,1-2.43,1-2.42,1-2.42,1-2.4,1-2.4,1-2.36,1-2.32,1-2.25,1-2.18,1-2.06,1-2,.93-1.81.88-1.65L356,491l.81-1.4.77-1.29.76-1.22.73-1.14.73-1.1.73-1.07.73-1.06.73-1.05.75-1,.75-1,.77-1,.77-1,.79-1,.8-1,.81-1,.83-1,.84-1,.86-1,.87-.95.87-.93.9-.94.9-.92.91-.93.92-.91.93-.91,1-.89,1-.88,1-.86,1-.84,1-.82,1-.8,1.05-.77,1.07-.74,1.09-.73,1.1-.7,1.11-.68,1.13-.67,1.14-.63,1.14-.62,1.16-.6,1.16-.57,1.18-.55,1.19-.52,1.19-.48,1.21-.45,1.21-.41,1.23-.38,1.23-.33L403,450l1.25-.24,1.26-.2,1.26-.15,1.28-.1,1.27-.05h1.28l1.29.06,1.29.11,1.28.15,1.28.19L417,450l1.28.27,1.26.3,1.26.33,1.24.36,1.24.38,1.22.42,1.22.45,1.2.48,1.2.51,1.19.53,1.17.57,1.17.59,1.15.62,1.14.64,1.13.67,1.12.68,1.11.71,1.09.72,1.07.73,1.07.76,1,.76,1,.78,1,.8,1,.81,1,.82,1,.84,1,.86,1,.88,1,.93,1,1,1.08,1.05,1.14,1.13,1.2,1.23,1.3,1.34,1.39,1.46,1.49,1.61,1.63,1.76,1.75,2,1.89,2.15,2.05,2.36,2.21,2.6,2.39,2.86,2.57,3.12,2.73,3.37,2.86,3.58,3,3.75,3.05,3.89,3.1,4,3.12,4.08,3.12,4.12,3.1,4.14,3.07,4.15,3,4.16,3,4.18,3,4.18,3,4.2,3,4.21,3,4.22,2.95,4.25,2.93,4.25,2.93,4.27,2.9,4.28,2.89,4.29,2.87,4.3,2.86,4.32,2.82,4.33,2.81,4.34,2.8,4.38,2.83,4.47,2.87,4.57,2.93,4.72,1.24,2"/><g id="text3461" class="cls-19"><text class="cls-22" transform="translate(141.13 41.47)"><tspan class="cls-23">V</tspan><tspan x="15.59" y="0">isible Bands</tspan></text></g><g id="text3461-1" class="cls-19"><text class="cls-22" transform="translate(426.67 109.1)">Blackbody radiative curve</text><text class="cls-22" transform="translate(426.67 139.1)">at the sun&apos;s temperature</text></g><g id="text3461-1-8" class="cls-19"><text class="cls-22" transform="translate(549.38 431.47)">Blackbody radiative curve</text><text class="cls-22" transform="translate(549.38 461.47)">at the earth&apos;s temperature</text></g><g id="text3461-1-0" class="cls-19"><text class="cls-22" transform="translate(22.72 453.84) rotate(-90)">Spectral radiant exitance</text></g><g id="text3461-1-8-2" class="cls-19"><text class="cls-22" transform="translate(212.59 683.61)"><tspan class="cls-24">W</tspan><tspan x="21.77" y="0">avelength (µm)</tspan></text></g><g id="text3461-1-6" class="cls-19"><text class="cls-25" transform="translate(446.98 569.74)">200K</text></g><g id="text3461-1-6-5" class="cls-19"><text class="cls-25" transform="translate(415.28 514.29)">300K</text></g><g id="text3461-1-6-2" class="cls-19"><text class="cls-25" transform="translate(380.49 438.64)">500K</text></g><g id="text3461-1-6-1" class="cls-19"><text class="cls-25" transform="translate(318.61 337.78)">1000K</text></g><g id="text3461-1-6-1-7" class="cls-19"><text class="cls-25" transform="translate(263.52 239.71)">2000K</text></g><g id="text3461-1-6-1-6" class="cls-19"><text class="cls-25" transform="translate(221.49 143.04)">4000K</text></g><g id="text3461-1-6-1-4" class="cls-19"><text class="cls-25" transform="translate(203.28 92.61)">6000K</text></g></g></svg>